<?xml version="1.0" encoding="UTF-8"?>
<svg xmlns="http://www.w3.org/2000/svg" version="1.1" width="300" height="300" viewBox="0 0 300 300"><rect x="0" y="0" width="300" height="300" fill="#fefefe"/><g transform="scale(10.345)"><g transform="translate(4.000,4.000)"><path fill-rule="evenodd" d="M9 0L9 2L8 2L8 3L9 3L9 4L10 4L10 5L11 5L11 4L12 4L12 7L11 7L11 6L10 6L10 7L9 7L9 6L8 6L8 8L4 8L4 9L3 9L3 8L0 8L0 9L3 9L3 10L4 10L4 11L2 11L2 12L0 12L0 13L2 13L2 12L3 12L3 13L5 13L5 11L8 11L8 12L9 12L9 13L8 13L8 17L9 17L9 18L8 18L8 21L9 21L9 20L10 20L10 21L11 21L11 20L13 20L13 21L17 21L17 20L16 20L16 17L17 17L17 18L20 18L20 19L18 19L18 21L19 21L19 20L20 20L20 21L21 21L21 18L20 18L20 17L18 17L18 16L16 16L16 17L15 17L15 15L16 15L16 14L15 14L15 10L14 10L14 13L13 13L13 12L12 12L12 11L13 11L13 10L12 10L12 8L13 8L13 9L15 9L15 8L13 8L13 4L12 4L12 3L13 3L13 2L12 2L12 1L13 1L13 0L11 0L11 1L10 1L10 0ZM10 2L10 4L11 4L11 2ZM10 7L10 8L11 8L11 7ZM18 8L18 9L17 9L17 10L16 10L16 13L17 13L17 14L18 14L18 15L21 15L21 14L20 14L20 12L21 12L21 11L20 11L20 10L21 10L21 9L19 9L19 8ZM4 9L4 10L5 10L5 9ZM6 9L6 10L7 10L7 9ZM10 9L10 10L8 10L8 11L10 11L10 12L11 12L11 13L10 13L10 14L9 14L9 15L10 15L10 16L11 16L11 15L10 15L10 14L13 14L13 15L12 15L12 18L11 18L11 17L10 17L10 18L9 18L9 19L10 19L10 20L11 20L11 19L14 19L14 20L15 20L15 19L14 19L14 14L13 14L13 13L12 13L12 12L11 12L11 11L12 11L12 10L11 10L11 9ZM0 10L0 11L1 11L1 10ZM10 10L10 11L11 11L11 10ZM17 10L17 11L18 11L18 12L20 12L20 11L19 11L19 10ZM6 12L6 13L7 13L7 12ZM10 18L10 19L11 19L11 18ZM0 0L0 7L7 7L7 0ZM1 1L1 6L6 6L6 1ZM2 2L2 5L5 5L5 2ZM21 0L14 0L14 7L21 7ZM20 1L15 1L15 6L20 6ZM19 2L16 2L16 5L19 5ZM0 21L7 21L7 14L0 14ZM1 20L6 20L6 15L1 15ZM2 19L5 19L5 16L2 16Z" fill="#000000"/></g></g></svg>
