<?xml version="1.0" encoding="UTF-8"?>
<svg xmlns="http://www.w3.org/2000/svg" version="1.1" width="300" height="300" viewBox="0 0 300 300"><rect x="0" y="0" width="300" height="300" fill="#fefefe"/><g transform="scale(10.345)"><g transform="translate(4.000,4.000)"><path fill-rule="evenodd" d="M8 0L8 1L9 1L9 0ZM10 0L10 2L8 2L8 5L9 5L9 6L8 6L8 7L9 7L9 6L10 6L10 7L11 7L11 8L8 8L8 9L7 9L7 8L6 8L6 9L7 9L7 10L6 10L6 11L7 11L7 12L6 12L6 13L7 13L7 12L11 12L11 11L12 11L12 10L13 10L13 12L12 12L12 13L11 13L11 14L10 14L10 13L8 13L8 14L9 14L9 15L11 15L11 16L9 16L9 17L8 17L8 21L9 21L9 20L10 20L10 21L13 21L13 19L10 19L10 17L11 17L11 18L12 18L12 17L13 17L13 18L14 18L14 20L16 20L16 19L17 19L17 17L16 17L16 16L14 16L14 15L15 15L15 12L16 12L16 15L17 15L17 16L18 16L18 18L20 18L20 17L19 17L19 16L20 16L20 15L17 15L17 14L19 14L19 13L20 13L20 14L21 14L21 11L20 11L20 10L21 10L21 8L20 8L20 10L16 10L16 9L19 9L19 8L16 8L16 9L15 9L15 12L14 12L14 8L13 8L13 5L12 5L12 4L13 4L13 3L12 3L12 1L13 1L13 0ZM10 2L10 4L9 4L9 5L11 5L11 4L12 4L12 3L11 3L11 2ZM11 6L11 7L12 7L12 6ZM0 8L0 9L2 9L2 10L1 10L1 11L0 11L0 13L2 13L2 12L3 12L3 13L5 13L5 12L3 12L3 11L5 11L5 10L3 10L3 9L4 9L4 8ZM8 9L8 11L11 11L11 10L12 10L12 9L11 9L11 10L9 10L9 9ZM2 10L2 11L1 11L1 12L2 12L2 11L3 11L3 10ZM16 11L16 12L20 12L20 11ZM11 14L11 15L12 15L12 14ZM11 16L11 17L12 17L12 16ZM15 17L15 19L16 19L16 17ZM18 19L18 20L17 20L17 21L18 21L18 20L19 20L19 21L20 21L20 20L19 20L19 19ZM0 0L0 7L7 7L7 0ZM1 1L1 6L6 6L6 1ZM2 2L2 5L5 5L5 2ZM21 0L14 0L14 7L21 7ZM20 1L15 1L15 6L20 6ZM19 2L16 2L16 5L19 5ZM0 21L7 21L7 14L0 14ZM1 20L6 20L6 15L1 15ZM2 19L5 19L5 16L2 16Z" fill="#000000"/></g></g></svg>
