<?xml version="1.0" encoding="UTF-8"?>
<svg xmlns="http://www.w3.org/2000/svg" version="1.1" width="300" height="300" viewBox="0 0 300 300"><rect x="0" y="0" width="300" height="300" fill="#fefefe"/><g transform="scale(10.345)"><g transform="translate(4.000,4.000)"><path fill-rule="evenodd" d="M9 0L9 1L8 1L8 3L9 3L9 4L8 4L8 8L6 8L6 9L7 9L7 10L3 10L3 9L4 9L4 8L3 8L3 9L2 9L2 8L0 8L0 9L2 9L2 10L1 10L1 11L2 11L2 12L0 12L0 13L4 13L4 12L3 12L3 11L5 11L5 13L7 13L7 12L6 12L6 11L7 11L7 10L8 10L8 11L9 11L9 9L10 9L10 11L11 11L11 10L12 10L12 11L13 11L13 10L14 10L14 11L16 11L16 10L21 10L21 9L20 9L20 8L18 8L18 9L17 9L17 8L14 8L14 9L13 9L13 10L12 10L12 9L11 9L11 8L13 8L13 4L12 4L12 3L13 3L13 2L12 2L12 1L13 1L13 0L11 0L11 2L12 2L12 3L11 3L11 4L12 4L12 5L11 5L11 6L10 6L10 7L9 7L9 4L10 4L10 0ZM11 6L11 7L12 7L12 6ZM8 8L8 9L9 9L9 8ZM14 9L14 10L15 10L15 9ZM2 10L2 11L3 11L3 10ZM8 12L8 15L9 15L9 14L10 14L10 13L11 13L11 15L10 15L10 19L11 19L11 17L12 17L12 16L13 16L13 17L14 17L14 18L15 18L15 21L18 21L18 20L19 20L19 19L18 19L18 20L16 20L16 17L18 17L18 18L20 18L20 20L21 20L21 17L20 17L20 16L19 16L19 17L18 17L18 16L16 16L16 17L15 17L15 16L14 16L14 15L16 15L16 13L17 13L17 15L20 15L20 14L19 14L19 13L20 13L20 12L16 12L16 13L15 13L15 12L14 12L14 13L13 13L13 12L12 12L12 13L11 13L11 12L10 12L10 13L9 13L9 12ZM8 17L8 18L9 18L9 17ZM12 18L12 21L14 21L14 19L13 19L13 18ZM8 19L8 21L10 21L10 20L9 20L9 19ZM0 0L0 7L7 7L7 0ZM1 1L1 6L6 6L6 1ZM2 2L2 5L5 5L5 2ZM21 0L14 0L14 7L21 7ZM20 1L15 1L15 6L20 6ZM19 2L16 2L16 5L19 5ZM0 21L7 21L7 14L0 14ZM1 20L6 20L6 15L1 15ZM2 19L5 19L5 16L2 16Z" fill="#000000"/></g></g></svg>
