<?xml version="1.0" encoding="UTF-8"?>
<svg xmlns="http://www.w3.org/2000/svg" version="1.1" width="300" height="300" viewBox="0 0 300 300"><rect x="0" y="0" width="300" height="300" fill="#fefefe"/><g transform="scale(10.345)"><g transform="translate(4.000,4.000)"><path fill-rule="evenodd" d="M8 0L8 1L9 1L9 0ZM10 0L10 2L8 2L8 5L9 5L9 6L8 6L8 7L9 7L9 6L10 6L10 7L11 7L11 8L8 8L8 9L7 9L7 8L6 8L6 9L5 9L5 10L4 10L4 8L0 8L0 9L3 9L3 10L2 10L2 11L0 11L0 13L2 13L2 12L3 12L3 13L5 13L5 12L6 12L6 13L7 13L7 12L6 12L6 11L7 11L7 10L9 10L9 12L8 12L8 14L9 14L9 12L10 12L10 13L11 13L11 11L12 11L12 10L14 10L14 11L15 11L15 13L17 13L17 14L14 14L14 13L13 13L13 12L12 12L12 13L13 13L13 14L14 14L14 15L13 15L13 16L12 16L12 14L11 14L11 16L10 16L10 15L9 15L9 17L8 17L8 21L12 21L12 20L13 20L13 21L15 21L15 20L13 20L13 19L14 19L14 18L15 18L15 19L16 19L16 21L17 21L17 19L16 19L16 18L17 18L17 16L18 16L18 18L20 18L20 17L19 17L19 16L20 16L20 15L17 15L17 14L19 14L19 13L20 13L20 14L21 14L21 11L20 11L20 10L21 10L21 8L20 8L20 10L16 10L16 9L19 9L19 8L16 8L16 9L15 9L15 10L14 10L14 8L13 8L13 5L12 5L12 4L13 4L13 3L12 3L12 1L13 1L13 0ZM10 2L10 4L9 4L9 5L11 5L11 4L12 4L12 3L11 3L11 2ZM11 6L11 7L12 7L12 6ZM6 9L6 10L5 10L5 11L6 11L6 10L7 10L7 9ZM9 9L9 10L10 10L10 11L11 11L11 10L12 10L12 9ZM15 10L15 11L16 11L16 10ZM3 11L3 12L4 12L4 11ZM17 11L17 12L20 12L20 11ZM16 15L16 16L15 16L15 17L16 17L16 16L17 16L17 15ZM11 16L11 17L12 17L12 16ZM13 16L13 18L14 18L14 16ZM9 17L9 18L10 18L10 19L9 19L9 20L11 20L11 19L12 19L12 18L10 18L10 17ZM18 19L18 20L19 20L19 21L20 21L20 20L19 20L19 19ZM0 0L0 7L7 7L7 0ZM1 1L1 6L6 6L6 1ZM2 2L2 5L5 5L5 2ZM21 0L14 0L14 7L21 7ZM20 1L15 1L15 6L20 6ZM19 2L16 2L16 5L19 5ZM0 21L7 21L7 14L0 14ZM1 20L6 20L6 15L1 15ZM2 19L5 19L5 16L2 16Z" fill="#000000"/></g></g></svg>
