<?xml version="1.0" encoding="UTF-8"?>
<svg xmlns="http://www.w3.org/2000/svg" version="1.1" width="300" height="300" viewBox="0 0 300 300"><rect x="0" y="0" width="300" height="300" fill="#fefefe"/><g transform="scale(10.345)"><g transform="translate(4.000,4.000)"><path fill-rule="evenodd" d="M9 0L9 2L8 2L8 3L9 3L9 4L10 4L10 5L11 5L11 4L12 4L12 7L11 7L11 6L10 6L10 7L9 7L9 6L8 6L8 8L4 8L4 9L3 9L3 8L0 8L0 12L1 12L1 13L3 13L3 11L4 11L4 13L8 13L8 17L9 17L9 18L8 18L8 21L11 21L11 19L10 19L10 20L9 20L9 18L11 18L11 17L12 17L12 14L13 14L13 15L14 15L14 14L13 14L13 12L12 12L12 11L14 11L14 12L15 12L15 14L16 14L16 12L17 12L17 14L18 14L18 15L21 15L21 14L20 14L20 12L21 12L21 11L20 11L20 10L21 10L21 9L19 9L19 8L18 8L18 9L17 9L17 10L16 10L16 12L15 12L15 8L13 8L13 4L12 4L12 3L13 3L13 2L12 2L12 1L13 1L13 0L11 0L11 1L10 1L10 0ZM10 2L10 4L11 4L11 2ZM10 7L10 8L11 8L11 7ZM12 8L12 10L11 10L11 11L9 11L9 10L10 10L10 9L8 9L8 10L7 10L7 9L6 9L6 10L5 10L5 12L7 12L7 11L8 11L8 13L9 13L9 16L11 16L11 14L10 14L10 13L9 13L9 12L11 12L11 13L12 13L12 12L11 12L11 11L12 11L12 10L14 10L14 9L13 9L13 8ZM1 9L1 10L3 10L3 9ZM6 10L6 11L7 11L7 10ZM17 10L17 11L18 11L18 12L20 12L20 11L19 11L19 10ZM1 11L1 12L2 12L2 11ZM16 15L16 16L17 16L17 17L16 17L16 18L15 18L15 16L14 16L14 18L15 18L15 19L16 19L16 20L15 20L15 21L16 21L16 20L17 20L17 21L19 21L19 20L20 20L20 21L21 21L21 18L20 18L20 17L18 17L18 16L17 16L17 15ZM16 18L16 19L17 19L17 20L18 20L18 19L20 19L20 18ZM12 19L12 21L13 21L13 19ZM0 0L0 7L7 7L7 0ZM1 1L1 6L6 6L6 1ZM2 2L2 5L5 5L5 2ZM21 0L14 0L14 7L21 7ZM20 1L15 1L15 6L20 6ZM19 2L16 2L16 5L19 5ZM0 21L7 21L7 14L0 14ZM1 20L6 20L6 15L1 15ZM2 19L5 19L5 16L2 16Z" fill="#000000"/></g></g></svg>
