<?xml version="1.0" encoding="UTF-8"?>
<svg xmlns="http://www.w3.org/2000/svg" version="1.1" width="300" height="300" viewBox="0 0 300 300"><rect x="0" y="0" width="300" height="300" fill="#fefefe"/><g transform="scale(10.345)"><g transform="translate(4.000,4.000)"><path fill-rule="evenodd" d="M8 0L8 4L12 4L12 5L11 5L11 6L10 6L10 5L8 5L8 7L9 7L9 9L10 9L10 10L6 10L6 9L7 9L7 8L4 8L4 9L5 9L5 10L4 10L4 12L3 12L3 10L2 10L2 8L0 8L0 9L1 9L1 10L2 10L2 13L4 13L4 12L5 12L5 13L8 13L8 14L10 14L10 13L11 13L11 14L12 14L12 15L8 15L8 17L9 17L9 18L10 18L10 19L11 19L11 20L9 20L9 19L8 19L8 21L12 21L12 20L13 20L13 21L15 21L15 20L16 20L16 21L17 21L17 20L16 20L16 17L18 17L18 16L17 16L17 15L18 15L18 14L17 14L17 15L16 15L16 14L14 14L14 11L15 11L15 13L19 13L19 18L17 18L17 19L18 19L18 20L19 20L19 21L21 21L21 19L20 19L20 20L19 20L19 18L21 18L21 17L20 17L20 14L21 14L21 13L19 13L19 12L21 12L21 10L20 10L20 9L21 9L21 8L17 8L17 9L19 9L19 10L16 10L16 8L15 8L15 9L14 9L14 10L13 10L13 9L12 9L12 8L13 8L13 6L12 6L12 5L13 5L13 4L12 4L12 3L9 3L9 1L10 1L10 2L11 2L11 1L12 1L12 2L13 2L13 0ZM9 6L9 7L10 7L10 6ZM11 6L11 7L12 7L12 6ZM10 8L10 9L11 9L11 10L12 10L12 12L11 12L11 13L12 13L12 12L13 12L13 10L12 10L12 9L11 9L11 8ZM5 10L5 11L6 11L6 12L7 12L7 11L6 11L6 10ZM15 10L15 11L16 11L16 12L17 12L17 11L16 11L16 10ZM0 11L0 13L1 13L1 11ZM8 11L8 13L10 13L10 12L9 12L9 11ZM18 11L18 12L19 12L19 11ZM12 15L12 16L9 16L9 17L11 17L11 19L13 19L13 20L14 20L14 19L15 19L15 17L14 17L14 19L13 19L13 17L12 17L12 16L14 16L14 15ZM15 15L15 16L16 16L16 15ZM0 0L0 7L7 7L7 0ZM1 1L1 6L6 6L6 1ZM2 2L2 5L5 5L5 2ZM21 0L14 0L14 7L21 7ZM20 1L15 1L15 6L20 6ZM19 2L16 2L16 5L19 5ZM0 21L7 21L7 14L0 14ZM1 20L6 20L6 15L1 15ZM2 19L5 19L5 16L2 16Z" fill="#000000"/></g></g></svg>
