<?xml version="1.0" encoding="UTF-8"?>
<svg xmlns="http://www.w3.org/2000/svg" version="1.1" width="300" height="300" viewBox="0 0 300 300"><rect x="0" y="0" width="300" height="300" fill="#fefefe"/><g transform="scale(10.345)"><g transform="translate(4.000,4.000)"><path fill-rule="evenodd" d="M8 0L8 1L9 1L9 0ZM10 0L10 2L8 2L8 5L9 5L9 6L8 6L8 7L9 7L9 6L10 6L10 7L11 7L11 8L8 8L8 9L7 9L7 8L6 8L6 9L7 9L7 10L6 10L6 11L4 11L4 10L5 10L5 9L4 9L4 8L0 8L0 10L1 10L1 11L2 11L2 10L3 10L3 11L4 11L4 12L2 12L2 13L4 13L4 12L6 12L6 13L7 13L7 12L6 12L6 11L7 11L7 10L8 10L8 12L9 12L9 13L8 13L8 14L9 14L9 17L8 17L8 21L10 21L10 20L13 20L13 21L15 21L15 20L16 20L16 21L18 21L18 20L19 20L19 21L20 21L20 20L19 20L19 19L18 19L18 20L16 20L16 19L15 19L15 20L13 20L13 19L14 19L14 18L17 18L17 16L18 16L18 18L20 18L20 17L19 17L19 16L20 16L20 15L15 15L15 16L16 16L16 17L13 17L13 16L14 16L14 15L13 15L13 14L15 14L15 13L17 13L17 14L19 14L19 13L20 13L20 14L21 14L21 11L20 11L20 10L21 10L21 8L20 8L20 10L17 10L17 9L19 9L19 8L16 8L16 9L15 9L15 10L14 10L14 8L13 8L13 5L12 5L12 4L13 4L13 3L12 3L12 1L13 1L13 0ZM10 2L10 4L9 4L9 5L11 5L11 4L12 4L12 3L11 3L11 2ZM11 6L11 7L12 7L12 6ZM3 9L3 10L4 10L4 9ZM9 9L9 10L10 10L10 9ZM11 9L11 10L12 10L12 11L10 11L10 12L11 12L11 13L10 13L10 14L13 14L13 13L15 13L15 12L16 12L16 10L15 10L15 11L13 11L13 10L12 10L12 9ZM17 11L17 12L20 12L20 11ZM0 12L0 13L1 13L1 12ZM12 12L12 13L13 13L13 12ZM10 15L10 16L11 16L11 17L9 17L9 18L11 18L11 19L13 19L13 17L12 17L12 16L13 16L13 15L12 15L12 16L11 16L11 15ZM11 17L11 18L12 18L12 17ZM9 19L9 20L10 20L10 19ZM0 0L0 7L7 7L7 0ZM1 1L1 6L6 6L6 1ZM2 2L2 5L5 5L5 2ZM21 0L14 0L14 7L21 7ZM20 1L15 1L15 6L20 6ZM19 2L16 2L16 5L19 5ZM0 21L7 21L7 14L0 14ZM1 20L6 20L6 15L1 15ZM2 19L5 19L5 16L2 16Z" fill="#000000"/></g></g></svg>
