<?xml version="1.0" encoding="UTF-8"?>
<svg xmlns="http://www.w3.org/2000/svg" version="1.1" width="300" height="300" viewBox="0 0 300 300"><rect x="0" y="0" width="300" height="300" fill="#fefefe"/><g transform="scale(10.345)"><g transform="translate(4.000,4.000)"><path fill-rule="evenodd" d="M8 0L8 1L9 1L9 0ZM10 0L10 2L8 2L8 5L9 5L9 6L8 6L8 7L9 7L9 6L10 6L10 7L11 7L11 8L8 8L8 9L9 9L9 10L6 10L6 9L7 9L7 8L6 8L6 9L5 9L5 10L4 10L4 8L0 8L0 11L2 11L2 12L4 12L4 13L5 13L5 12L6 12L6 13L7 13L7 12L6 12L6 11L8 11L8 12L9 12L9 11L12 11L12 10L13 10L13 12L12 12L12 13L11 13L11 12L10 12L10 13L8 13L8 14L10 14L10 15L9 15L9 16L10 16L10 15L11 15L11 14L12 14L12 15L13 15L13 17L12 17L12 16L11 16L11 17L12 17L12 18L15 18L15 17L14 17L14 16L15 16L15 14L16 14L16 17L17 17L17 16L18 16L18 18L20 18L20 17L19 17L19 16L20 16L20 15L17 15L17 14L19 14L19 13L20 13L20 14L21 14L21 11L20 11L20 10L21 10L21 8L20 8L20 10L17 10L17 9L19 9L19 8L16 8L16 10L15 10L15 11L14 11L14 10L13 10L13 9L14 9L14 8L13 8L13 5L12 5L12 4L13 4L13 3L12 3L12 1L13 1L13 0ZM10 2L10 4L9 4L9 5L11 5L11 4L12 4L12 3L11 3L11 2ZM11 6L11 7L12 7L12 6ZM1 9L1 10L2 10L2 9ZM10 9L10 10L12 10L12 9ZM3 10L3 11L4 11L4 10ZM5 10L5 11L6 11L6 10ZM16 10L16 12L13 12L13 13L12 13L12 14L13 14L13 15L14 15L14 14L15 14L15 13L16 13L16 14L17 14L17 13L16 13L16 12L20 12L20 11L17 11L17 10ZM0 12L0 13L1 13L1 12ZM10 13L10 14L11 14L11 13ZM8 17L8 21L10 21L10 19L11 19L11 18L10 18L10 17ZM12 19L12 20L13 20L13 21L14 21L14 19ZM18 19L18 20L16 20L16 21L18 21L18 20L19 20L19 21L20 21L20 20L19 20L19 19ZM0 0L0 7L7 7L7 0ZM1 1L1 6L6 6L6 1ZM2 2L2 5L5 5L5 2ZM21 0L14 0L14 7L21 7ZM20 1L15 1L15 6L20 6ZM19 2L16 2L16 5L19 5ZM0 21L7 21L7 14L0 14ZM1 20L6 20L6 15L1 15ZM2 19L5 19L5 16L2 16Z" fill="#000000"/></g></g></svg>
