<?xml version="1.0" encoding="UTF-8"?>
<svg xmlns="http://www.w3.org/2000/svg" version="1.1" width="300" height="300" viewBox="0 0 300 300"><rect x="0" y="0" width="300" height="300" fill="#fefefe"/><g transform="scale(10.345)"><g transform="translate(4.000,4.000)"><path fill-rule="evenodd" d="M9 0L9 2L8 2L8 3L9 3L9 4L10 4L10 5L11 5L11 4L12 4L12 7L11 7L11 6L10 6L10 7L9 7L9 6L8 6L8 8L4 8L4 9L10 9L10 10L8 10L8 11L7 11L7 10L6 10L6 11L5 11L5 12L4 12L4 10L3 10L3 8L0 8L0 10L1 10L1 11L0 11L0 12L2 12L2 11L3 11L3 13L5 13L5 12L6 12L6 13L8 13L8 17L10 17L10 19L9 19L9 18L8 18L8 21L9 21L9 20L11 20L11 21L12 21L12 20L13 20L13 21L15 21L15 20L14 20L14 19L15 19L15 18L16 18L16 19L17 19L17 18L20 18L20 19L18 19L18 20L20 20L20 21L21 21L21 18L20 18L20 17L18 17L18 16L17 16L17 15L15 15L15 14L16 14L16 12L17 12L17 14L18 14L18 15L21 15L21 14L20 14L20 12L21 12L21 11L20 11L20 10L21 10L21 9L19 9L19 8L18 8L18 9L15 9L15 8L13 8L13 4L12 4L12 3L13 3L13 2L12 2L12 1L13 1L13 0L11 0L11 1L10 1L10 0ZM10 2L10 4L11 4L11 2ZM10 7L10 8L11 8L11 7ZM12 8L12 10L10 10L10 11L8 11L8 13L9 13L9 14L10 14L10 15L11 15L11 16L10 16L10 17L11 17L11 19L12 19L12 17L13 17L13 19L14 19L14 16L15 16L15 17L17 17L17 16L15 16L15 15L14 15L14 14L15 14L15 13L14 13L14 14L13 14L13 13L12 13L12 12L14 12L14 11L12 11L12 10L13 10L13 8ZM1 9L1 10L2 10L2 9ZM14 9L14 10L15 10L15 12L16 12L16 11L18 11L18 12L20 12L20 11L19 11L19 10L15 10L15 9ZM6 11L6 12L7 12L7 11ZM10 11L10 12L12 12L12 11ZM10 13L10 14L11 14L11 13ZM0 0L0 7L7 7L7 0ZM1 1L1 6L6 6L6 1ZM2 2L2 5L5 5L5 2ZM21 0L14 0L14 7L21 7ZM20 1L15 1L15 6L20 6ZM19 2L16 2L16 5L19 5ZM0 21L7 21L7 14L0 14ZM1 20L6 20L6 15L1 15ZM2 19L5 19L5 16L2 16Z" fill="#000000"/></g></g></svg>
